<?xml version="1.0" encoding="utf-8"?>
<!-- Generator: Adobe Illustrator 27.8.0, SVG Export Plug-In . SVG Version: 6.00 Build 0)  -->
<svg version="1.1" id="Livello_1" xmlns="http://www.w3.org/2000/svg" xmlns:xlink="http://www.w3.org/1999/xlink" x="0px" y="0px"
	 viewBox="0 0 182 32" style="enable-background:new 0 0 182 32;" xml:space="preserve">
<style type="text/css">
	.st0{fill:#3E3F40;}
</style>
<g>
	<path class="st0" d="M0.1,19.3l1.4-6.5C2.3,9.1,5.3,6.9,9,6.9h17.5L26,9.7H9.3c-2.9,0-4.3,1.7-4.7,3.7l-1.1,5.2
		c-0.5,2.4,0.8,3.7,3,3.7h16.9l-0.6,2.8H5.3C1.7,25.1-0.6,22.9,0.1,19.3"/>
	<path class="st0" d="M27.4,19.3L30,6.9h3.2l-2.5,11.7c-0.5,2.4,0.8,3.7,3,3.7h13c2.6,0,4.1-1.3,4.6-3.7l2.5-11.7H57l-2.6,12.4
		c-0.8,3.6-3.9,5.8-7.5,5.8H32.5C28.9,25.1,26.7,22.9,27.4,19.3"/>
	<path class="st0" d="M58.3,22.3h20.8c1.6,0,2.6-0.7,2.8-1.8l0.1-0.6c0.2-0.8-0.5-1.6-1.5-1.7l-16.9-1.5c-2.6-0.2-4.2-1.7-3.7-4.2
		l0.3-1.4c0.6-2.7,3-4.4,5.9-4.4h20.7l-0.6,2.8H65.9c-1.5,0-2.4,1-2.6,1.8L63.2,12c-0.2,1,0.4,1.8,1.6,1.9l17.3,1.5
		c2.4,0.2,3.7,1.7,3.2,4.1L85,20.9c-0.5,2.5-3.1,4.2-5.9,4.2H57.7L58.3,22.3z"/>
	<polygon class="st0" points="100.6,9.7 88.9,9.7 89.5,6.9 116.1,6.9 115.5,9.7 103.9,9.7 100.6,25.1 97.4,25.1 	"/>
	<path class="st0" d="M115.6,19.3l1.4-6.5c0.8-3.7,3.8-5.9,7.5-5.9h14.3c3.6,0,5.8,2.2,5,5.9l-1.4,6.5c-0.8,3.6-3.9,5.8-7.6,5.8
		h-14.2C117.1,25.1,114.8,22.9,115.6,19.3 M134.9,22.3c2.6,0,4-1.3,4.5-3.7l1.1-5.2c0.5-2.3-0.4-3.7-3.2-3.7h-12.6
		c-2.9,0-4.3,1.7-4.7,3.7l-1.1,5.2c-0.5,2.4,0.8,3.7,3,3.7H134.9z"/>
	<polygon class="st0" points="182,6.9 178.1,25.1 175,25.1 178,10.9 163.9,21.4 161.4,21.4 151.5,10.6 148.5,25.1 145.4,25.1 
		149.2,6.9 152.3,6.9 163.1,18.7 178.9,6.9 	"/>
</g>
</svg>
