<?xml version="1.0" encoding="UTF-8"?><svg id="Livello_2" xmlns="http://www.w3.org/2000/svg" viewBox="0 0 260.71 167.24"><defs><style>.cls-1{fill:#de3340;}</style></defs><g id="Livello_3"><path class="cls-1" d="M189.34,117.64h-15.59V62.36h-20.55v-12.76h49.54C189.7,20.38,160.41,0,126.35,0,80.16,0,0,37.44,0,83.62s80.16,83.62,126.35,83.62,83.62-37.44,83.62-83.62c0-7.35-.96-14.47-2.74-21.26h-17.9v55.28Zm-32.4-31.18c0,17.22-13.96,31.18-31.18,31.18h-31.18V49.61h31.18c17.22,0,31.18,13.96,31.18,31.18v5.67Z"/><path class="cls-1" d="M125.75,65.2h-15.59v36.85h15.59c8.6,0,15.59-6.99,15.59-15.59v-5.67c0-8.6-6.99-15.59-15.59-15.59Z"/><path class="cls-1" d="M241.52,90.23c7.38-3.34,12.52-10.74,12.52-19.36h0c0-11.74-9.52-21.26-21.26-21.26h-30.04c1.82,4.09,3.34,8.35,4.5,12.76h25.54c4.69,0,8.5,3.81,8.5,8.5,0,4.32-3.24,7.89-7.42,8.43-.36,.05-15.52,.08-15.52,.08l8.93,12.76,17.86,25.51h15.57l-19.19-27.41Z"/></g></svg>